<?xml version="1.0" encoding="UTF-8"?>
<svg id="Layer_2" data-name="Layer 2" xmlns="http://www.w3.org/2000/svg" viewBox="0 0 856.28 873.9">
  <defs>
    <style>
      .cls-1 {
        fill: #231f20;
      }
    </style>
  </defs>
  <g id="Layer_5" data-name="Layer 5">
    <path class="cls-1" d="m805.63,803.21c-47.57-45.54-95.13-91.08-142.7-136.63-3.51-3.36-8.18-5.23-13.03-5.23h-84.27c-3.62,0-5.58-4.25-3.22-7l26.79-31.25-37.31,43.46-22.02,25.65,72.1-83.99,91.86-107.01s0,0,0,0c53.87-59.94,107.82-119.81,161.76-179.69h-.48c.93-1.6,1.49-3.87.93-5.12-.71-1.6-3.5-2.53-5.56-3.2-1.51-.49-3.3-.1-4.97-.1-71.16,0-142.32.08-213.48-.13-7.49-.02-12.85,2.27-17.75,7.94-13.41,15.5-27.28,30.59-41,45.82-.95,1.05-1.9,2.11-2.84,3.16h.09c-32.15,35.7-64.29,71.41-96.38,107.16-3.1,3.45-5,4.1-8.68.55-45.39-43.69-90.93-87.21-136.43-130.78-.72-.69-1.51-1.33-2.14-2.1-2.14-2.58-1.33-4.61,2.05-5.08,1.31-.18,2.66-.06,4-.06,44.5,0,88.99,0,133.49,0q18.42,0,29.76-14.86c34.47-45.25,44.27-96.15,32.56-151.05-15.01-70.42-56.37-120.73-121.53-150.51-55.81-25.52-114.32-29.08-173.71-14.95-54.73,13.02-100.09,41.56-133.1,87.45-47.29,65.74-53.34,137.35-26.35,212.44,14.95,41.59,40.7,76.61,70.84,108.31,25.26,26.56,51.7,51.99,77.52,78.02,2.28,2.3,3.8,5.37,5.68,8.07-3.31.53-6.63,1.54-9.94,1.53-53.83-.15-107.65-.37-161.48-.76-6.04-.04-9.96,2.29-13.1,7.29-10.46,16.69-19.11,34.26-25.78,52.77-16.68,46.29-23.1,93.83-13.01,142.31,15.31,73.52,59.46,123.43,128.86,150.99,46.21,18.35,94.3,20.51,142.96,13.75,53.44-7.42,101.03-28.66,143.17-62.33,21.69-17.33,41.03-37.08,59.86-57.36h0c2.92-3.14,4.77-3.43,8.03-.28,35.55,34.44,71.29,68.68,106.84,103.12,3.87,3.75,7.84,5.49,13.25,5.47,40-.16,79.99-.09,119.99-.09,40.5,0,80.99.05,121.49-.11,2.31,0,6.24-1.38,6.53-2.72.45-2.13-.9-5.44-2.61-7.12-15.72-15.39-31.68-30.53-47.57-45.74ZM249.25,224.35c3.1-27.65,30.8-50.25,58.5-47.2,26.63,2.93,44.86,19.34,50.09,45.28.72,3.56.69,7.28.89,9.7-.41,22.46-9.89,40.08-22.76,55.92-8.91,10.96-19.15,20.84-28.8,31.2-1.66,1.78-3.32,3.54-5.78,1-14.82-15.29-30.55-29.8-41.15-48.67-8.25-14.69-12.91-30.05-10.98-47.23Zm192.18,288.92c-34.1,38.11-68.14,76.28-102.51,114.15-14.98,16.5-33.12,28.24-55.37,32.61-35.1,6.89-71.6-7.51-84.5-43.25-14.69-40.68,4.4-82.26,46.06-100.26,19.02-8.22,39.05-10.49,59.48-10.57,19.33-.07,38.65-.02,57.98-.02,25.16,0,50.32-.05,75.48.08,2.08.01,4.16,1.2,6.24,1.84-.94,1.82-1.54,3.94-2.86,5.41Z"/>
  </g>
</svg>